<?xml version="1.0" standalone="no"?>
<!DOCTYPE svg PUBLIC "-//W3C//DTD SVG 20010904//EN"
 "http://www.w3.org/TR/2001/REC-SVG-20010904/DTD/svg10.dtd">
<svg version="1.0" xmlns="http://www.w3.org/2000/svg"
 width="512.000000pt" height="512.000000pt" viewBox="0 0 512.000000 512.000000"
 preserveAspectRatio="xMidYMid meet">
<metadata>
Created by potrace 1.11, written by Peter Selinger 2001-2013
</metadata>
<g transform="translate(0.000000,512.000000) scale(0.100000,-0.100000)"
fill="#000000" stroke="none">
<path d="M3219 4462 c-19 -2 -31 -14 -46 -45 -31 -66 -482 -970 -495 -992 -6
-11 -42 -83 -80 -160 -38 -77 -73 -148 -79 -158 -6 -11 -114 -227 -240 -480
-126 -254 -234 -470 -240 -481 -6 -10 -78 -154 -160 -320 -82 -165 -155 -310
-161 -321 -6 -11 -42 -83 -80 -160 -38 -77 -73 -149 -79 -159 -20 -34 -269
-536 -269 -541 0 -3 143 -5 318 -5 l317 0 953 1906 c524 1048 951 1908 948
1911 -5 6 -564 10 -607 5z"/>
<path d="M650 3820 c-5 -3 -151 -290 -325 -638 l-316 -632 319 -638 318 -637
317 0 c174 -1 317 2 317 6 0 4 -142 291 -315 638 l-316 631 316 630 c173 346
315 633 315 638 0 8 -616 10 -630 2z"/>
<path d="M3844 3819 c-2 -4 138 -291 312 -638 l315 -631 -316 -631 c-173 -347
-313 -634 -311 -638 2 -3 145 -6 317 -6 l313 0 318 637 319 638 -319 637 -319
638 -312 0 c-172 0 -315 -3 -317 -6z"/>
</g>
</svg>
